%
M48
M72
T01C0.0200
T02C0.0400
%
T01
X7140Y5640
X6640Y5140
X7140Y6140
X11640Y5140
X9640Y8140
X7140Y8140
X9140Y5140
T02
X12640Y1140
X11640Y1140
X10640Y1140
X14140Y4140
X14140Y3140
X14140Y2140
X9140Y1140
X8140Y1140
X7140Y1140
X6140Y1140
X5140Y1140
X2640Y3640
X1640Y3640
X2640Y4640
X1640Y4640
X2640Y5640
X1640Y5640
X2640Y6640
X1640Y6640
M30
